<?xml version="1.0" standalone="no"?><!DOCTYPE svg PUBLIC "-//W3C//DTD SVG 1.1//EN" "http://www.w3.org/Graphics/SVG/1.1/DTD/svg11.dtd"><svg t="1610347198000" class="icon" viewBox="0 0 1061 1024" version="1.1" xmlns="http://www.w3.org/2000/svg" p-id="6587" xmlns:xlink="http://www.w3.org/1999/xlink" width="207.2265625" height="200"><defs><style type="text/css"></style></defs><path d="M61.578544 431.283905H704.849272c34.210302 0 61.589185 28.240791 61.589185 63.515176v465.685742c0 35.274386-27.378883 63.515177-61.589185 63.515177H61.578544C27.368242 1024 0 995.759209 0 960.484823V494.799081c0-35.274386 27.368242-63.515177 61.578544-63.515176zM349.019567 741.751707v98.789563c0 7.054877 6.84206 7.054877 6.842061 7.054877h54.747124c6.852701 0 6.852701-7.054877 6.852701-7.054877v-98.789563c27.368242-14.109754 41.052362-42.329263 41.052362-70.548772 0-42.350545-34.210302-77.624931-75.273305-77.624932s-75.305228 35.295668-75.305228 77.614291c0 35.274386 13.684121 56.449659 41.063003 70.559413z" fill="" p-id="6588"></path><path d="M955.845417 268.14918c0-84.658527-70.559413-162.283458-162.283458-162.283458-84.679808 0-162.283458 70.559413-162.283458 162.283458v169.317053h-91.734685V261.06238C539.543816 119.954195 652.443133 0 800.616836 0 941.714381 0 1061.689857 112.888676 1061.689857 261.06238v169.348976h-98.778922L955.845417 268.14918z" fill="" p-id="6589"></path></svg>