<?xml version="1.0" standalone="no"?><!DOCTYPE svg PUBLIC "-//W3C//DTD SVG 1.1//EN" "http://www.w3.org/Graphics/SVG/1.1/DTD/svg11.dtd"><svg t="1610503281925" class="icon" viewBox="0 0 1024 1024" version="1.1" xmlns="http://www.w3.org/2000/svg" p-id="27207" xmlns:xlink="http://www.w3.org/1999/xlink" width="200" height="200"><defs><style type="text/css"></style></defs><path d="M289.762391 1013.629218a83.760855 83.760855 0 0 1-91.338243-6.963005 92.15742 92.15742 0 0 1-34.405437-88.266328l39.934882-242.681205a30.923934 30.923934 0 0 0-8.396565-26.623255L26.396965 476.965845a92.976597 92.976597 0 0 1-21.810589-92.567008c10.239713-32.767083 37.272556-56.523217 69.937241-61.43828l233.772655-35.429408a28.978389 28.978389 0 0 0 21.708192-16.485938L434.449539 50.379389A86.42318 86.42318 0 0 1 512.27136 0c32.971877 0 63.076634 19.455455 77.719424 50.379389L694.538257 271.147608c4.198282 8.908551 12.287656 15.052379 21.708192 16.485938l233.772654 35.429408c32.664685 4.915062 59.799926 28.671197 69.937242 61.43828 10.239713 32.767083 1.740751 68.606079-21.810589 92.567008L828.985692 649.197822a30.923934 30.923934 0 0 0-8.396564 26.623255l39.934881 242.681205a92.15742 92.15742 0 0 1-34.507833 88.266328 83.760855 83.760855 0 0 1-91.133449 6.860608L525.582988 899.046827a27.85202 27.85202 0 0 0-26.828049 0L289.762391 1013.629218zM640.267777 703.980289a63.998208 63.998208 0 0 0-63.998209-63.998208h-127.996416a63.998208 63.998208 0 1 0 0 127.996416h127.996416c35.327011 0 63.998208-28.671197 63.998209-63.998208z" p-id="27208"></path></svg>