<?xml version="1.0" standalone="no"?><!DOCTYPE svg PUBLIC "-//W3C//DTD SVG 1.1//EN" "http://www.w3.org/Graphics/SVG/1.1/DTD/svg11.dtd"><svg t="1608281337363" class="icon" viewBox="0 0 1788 1024" version="1.1" xmlns="http://www.w3.org/2000/svg" p-id="4253" xmlns:xlink="http://www.w3.org/1999/xlink" width="349.21875" height="200"><defs><style type="text/css"></style></defs><path d="M-1205.5927474-75.2333168L360.10604393 1491.22626171M821.14271446 288.42267173l-22.06281073 22.06281075 22.06281073 22.82359609zM935.26070219 842.27530473c0 31.19224988-25.86674309 57.05899474-57.05899295 57.05899475s-57.05899474-25.86674309-57.05899478-57.05899475v-294.42440766l-129.33371909-129.33372082-60.10213994 60.10214171c-21.30202352 21.30202352-59.34135276 21.30202352-80.64337808 0s-21.30202352-59.34135276 0-80.64337807l60.10213995-60.10214176-304.31463398-304.31463396c-103.46697598 127.05135929-165.09068854 288.33811546-165.09068853 464.07981753 0 406.26003557 330.18137708 737.20220164 737.20219986 737.20220164 175.7417003 0 337.78924366-61.62371257 464.0798175-165.09069033l-407.02082275-407.02082276v179.54563448z" p-id="4254"></path><path d="M414.12189171-73.71174419l303.55384679 303.55384856 119.4434945-119.4434945c21.30202352-21.30202352 59.34135276-21.30202352 80.64337808 0l287.57732826 287.57733002c21.30202352 21.30202352 21.30202352 59.34135276 0 80.64337807-12.17258615 12.17258615-25.86674309 16.73730572-40.32168906 16.73730396s-28.90989008-4.56471958-40.32168903-16.73730396l-190.19664624-190.19664623v159.0043946l515.05251832 515.05251831c103.46697598-127.05135929 165.09068854-288.33811546 165.09068857-464.07981576 0-406.26003557-330.18137708-737.20220164-737.20219986-737.2022016-174.98091489 0-336.26767105 61.62371257-462.55824315 163.56911592L151.65051935-339.22626173l-53.25506057 54.01584778-54.0158478 53.25506061 263.99294495 263.99294491c31.95303708-38.80011643 66.94921933-73.7962987 105.74933578-105.74933576zM1454.11715291 963.24037182c-31.95303708 39.56090185-68.47079195 75.3178713-107.27090836 107.27090837l263.99294493 263.99294494 107.27090839-107.27090835-263.99294496-263.99294496z" p-id="4255"></path></svg>