<?xml version="1.0" standalone="no"?><!DOCTYPE svg PUBLIC "-//W3C//DTD SVG 1.1//EN" "http://www.w3.org/Graphics/SVG/1.1/DTD/svg11.dtd"><svg t="1608276682410" class="icon" viewBox="0 0 1041 1024" version="1.1" xmlns="http://www.w3.org/2000/svg" p-id="14529" xmlns:xlink="http://www.w3.org/1999/xlink" width="203.3203125" height="200"><defs><style type="text/css"></style></defs><path d="M51.369811 542.235265c0 240.882367 191.923732 436.422863 430.394924 436.422864 250.512369 0 436.408161-211.198438 436.408161-436.422864h45.356573c0 238.471191-186.689716 481.764735-481.764734 481.764735C198.730893 1024 0 790.351161 0 542.235265 0 263.420982 227.032807 60.470531 475.751497 60.470531c0 0 0.70571 45.356574 0 48.179414-210.977903 0-424.381685 179.691424-424.381686 433.58532z m0 0" p-id="14530"></path><path d="M475.751497 60.470531h48.179414v481.764734h-48.179414zM584.1368 12.305819h48.179414v421.544143h-48.179414z" p-id="14531"></path><path d="M608.233858 385.655846h421.544143v48.179414H608.233858zM481.764735 494.055851h481.764734v48.179414H481.764735z" p-id="14532"></path><path d="M584.1368 0.249939s444.435613-25.287944 457.682379 433.585321h-48.179414s19.260004-370.953553-409.502965-391.433847V6.277879" p-id="14533"></path><path d="M950.664963 512.007351c0 266.876021-202.024207 497.804936-468.900228 497.804936S17.304599 811.728295 17.304599 544.837571 247.836552 79.862855 514.727275 79.862855c4.013726 0-1.132077 432.129794-1.132076 432.129794s437.069764-3.646169 437.069764 0.014702z" p-id="14534"></path><path d="M1029.763299 420.735517c0 2.484688-421.544143-3.39623-421.544143-3.39623s3.366825-396.167985 12.673377-396.167985c220.681417 0 408.870766 178.8975 408.870766 399.564215z" p-id="14535"></path></svg>