<?xml version="1.0" standalone="no"?><!DOCTYPE svg PUBLIC "-//W3C//DTD SVG 1.1//EN" "http://www.w3.org/Graphics/SVG/1.1/DTD/svg11.dtd"><svg t="1608281075574" class="icon" viewBox="0 0 1024 1024" version="1.1" xmlns="http://www.w3.org/2000/svg" p-id="19417" xmlns:xlink="http://www.w3.org/1999/xlink" width="200" height="200"><defs><style type="text/css"></style></defs><path d="M0 512c0 282.154799 229.316821 512 512 512s512-229.316821 512-512S794.154799 0 512 0 0 229.316821 0 512z m540.004128-269.473684L739.731682 442.78225c14.794634 14.794634 14.794634 41.213622 0 56.008256-8.454076 8.454076-17.964912 11.624355-28.004128 11.624355s-20.078431-3.170279-28.004128-11.624355l-132.094943-132.094944v384.660475c0 21.663571-17.964912 39.628483-39.628483 39.628483s-39.628483-17.964912-39.628483-39.628483V366.695562l-132.094943 132.094944c-14.794634 14.794634-41.213622 14.794634-56.008256 0s-14.794634-41.213622 0-56.008256L483.995872 243.054696c14.794634-15.323013 41.213622-15.323013 56.008256-0.52838z" p-id="19418"></path></svg>