<?xml version="1.0" standalone="no"?><!DOCTYPE svg PUBLIC "-//W3C//DTD SVG 1.1//EN" "http://www.w3.org/Graphics/SVG/1.1/DTD/svg11.dtd"><svg t="1618294884951" class="icon" viewBox="0 0 1024 1024" version="1.1" xmlns="http://www.w3.org/2000/svg" p-id="11158" xmlns:xlink="http://www.w3.org/1999/xlink" width="200" height="200"><defs><style type="text/css"></style></defs><path d="M512 0C229.376 0 0 229.376 0 512s229.376 512 512 512 512-229.376 512-512S794.624 0 512 0z m275.456 612.864l-214.528 178.176c-3.072 2.56-6.656 4.096-10.752 4.096-9.728 0.512-17.92-7.168-18.432-16.896v-126.464H247.808c-9.728 0.512-16.896-7.168-17.408-16.384v-35.328c0.512-9.728 8.704-16.384 17.408-16.384h527.872c5.12-0.512 10.24 1.536 13.312 6.144 6.144 6.656 5.12 16.896-1.536 23.04z m6.144-188.928c-0.512 9.728-8.704 16.384-17.408 16.384H247.808c-5.632 0.512-10.752-1.536-14.336-6.144-5.12-7.168-4.096-17.408 2.56-23.04L450.56 232.448c3.072-2.56 6.656-4.096 10.752-4.096 9.728-0.512 17.92 7.168 18.432 16.896v124.416h296.448c9.728-0.512 16.896 7.168 17.408 16.384v37.888z" p-id="11159"></path></svg>