<?xml version="1.0" standalone="no"?><!DOCTYPE svg PUBLIC "-//W3C//DTD SVG 1.1//EN" "http://www.w3.org/Graphics/SVG/1.1/DTD/svg11.dtd"><svg t="1607486042694" class="icon" viewBox="0 0 1024 1024" version="1.1" xmlns="http://www.w3.org/2000/svg" p-id="4123" xmlns:xlink="http://www.w3.org/1999/xlink" width="200" height="200"><defs><style type="text/css"></style></defs><path d="M73.323761 584.963624C32.80553 584.963624 0 617.613542 0 657.889258L0 950.895133C0 991.10712 32.828167 1023.820767 73.323761 1023.820767L950.676239 1023.820767C991.19447 1023.820767 1024 991.170849 1024 950.895133L1024 657.889258C1024 617.677268 991.171833 584.963624 950.676239 584.963624 910.380464 584.963624 877.714286 617.39174 877.714286 658.037043L877.714286 841.072234C877.714286 861.210094 861.063109 877.535053 841.442629 877.535053L182.557371 877.535053C162.525089 877.535053 146.285714 860.966868 146.285714 841.072234L146.285714 658.037043C146.285714 617.679707 113.220378 584.963624 73.323761 584.963624ZM694.857143 405.014565 694.857143 514.478124C694.857143 554.945712 718.615186 565.441393 748.209931 537.650714L1017.953481 284.350444C1025.939463 275.898277 1026.069317 261.659626 1018.018406 253.077426L749.677045 14.729402C719.40085-12.162732 694.857143-1.242789 694.857143 39.423605L694.857143 149.056976C319.383998 142.691259 146.285714 346.223358 146.285714 551.179743 146.285714 551.179743 202.152554 405.014579 694.857143 405.014565Z" p-id="4124"></path></svg>